HIERARCHY
ROOT Hips
{
	OFFSET 0.000000 83.214638 0.000000
	CHANNELS 6 Xposition Yposition Zposition Xrotation Yrotation Zrotation
	JOINT Pelvis
	{
		OFFSET 0.000000 0.000000 0.000000
		CHANNELS 3 Xrotation Yrotation Zrotation
		JOINT LeftUpLeg
		{
			OFFSET 8.479700 -4.795502 -0.379100
			CHANNELS 3 Xrotation Yrotation Zrotation
			JOINT LeftLeg
			{
				OFFSET 0.024144 -32.555107 0.112900
				CHANNELS 3 Xrotation Yrotation Zrotation
				JOINT LeftFoot
				{
					OFFSET -0.024144 -32.638630 -3.012600
					CHANNELS 3 Xrotation Yrotation Zrotation
					JOINT LeftToeBase
					{
						OFFSET 0.970200 -13.225400 11.864200
						CHANNELS 3 Xrotation Yrotation Zrotation
						End Site
						{
							OFFSET 0.000000 12.319262 0.000000
						}
					}
					JOINT LFootTongue
					{
						OFFSET 1.142400 -1.059800 6.665200
						CHANNELS 3 Xrotation Yrotation Zrotation
						End Site
						{
							OFFSET 0.000000 12.319262 0.000000
						}
					}
				}
				JOINT LeftPantLeg
				{
					OFFSET 0.918482 -16.533964 -2.284700
					CHANNELS 3 Xrotation Yrotation Zrotation
					End Site
					{
						OFFSET 0.350399 24.744368 0.000000
					}
				}
			}
		}
		JOINT RightUpLeg
		{
			OFFSET -8.479700 -4.795502 -0.379100
			CHANNELS 3 Xrotation Yrotation Zrotation
			JOINT RightLeg
			{
				OFFSET -0.023144 -32.555092 0.112900
				CHANNELS 3 Xrotation Yrotation Zrotation
				JOINT RightFoot
				{
					OFFSET 0.023144 -32.638641 -3.012700
					CHANNELS 3 Xrotation Yrotation Zrotation
					JOINT RightToeBase
					{
						OFFSET -0.970200 -13.225400 11.864200
						CHANNELS 3 Xrotation Yrotation Zrotation
						End Site
						{
							OFFSET 0.000000 12.319244 0.000000
						}
					}
					JOINT RFootTongue
					{
						OFFSET -1.142200 -1.059800 6.665200
						CHANNELS 3 Xrotation Yrotation Zrotation
						End Site
						{
							OFFSET 0.000000 12.319243 0.000000
						}
					}
				}
				JOINT RightPantLeg
				{
					OFFSET -0.919482 -16.533978 -2.284800
					CHANNELS 3 Xrotation Yrotation Zrotation
					End Site
					{
						OFFSET -0.350400 24.744419 0.000000
					}
				}
			}
		}
	}
	JOINT Spine
	{
		OFFSET 0.000000 7.722000 1.166200
		CHANNELS 3 Xrotation Yrotation Zrotation
		JOINT Spine1
		{
			OFFSET 0.000000 12.024101 0.248800
			CHANNELS 3 Xrotation Yrotation Zrotation
			JOINT Spine2
			{
				OFFSET 0.000000 11.502998 -0.491200
				CHANNELS 3 Xrotation Yrotation Zrotation
				JOINT Neck
				{
					OFFSET 0.000000 18.430702 -3.123100
					CHANNELS 3 Xrotation Yrotation Zrotation
					JOINT Head
					{
						OFFSET 0.000000 9.051102 1.034000
						CHANNELS 3 Xrotation Yrotation Zrotation
						JOINT HairB
						{
							OFFSET 0.208400 24.786102 24.822300
							CHANNELS 3 Xrotation Yrotation Zrotation
							End Site
							{
								OFFSET 0.000000 32.263779 0.000000
							}
						}
						JOINT HairA
						{
							OFFSET -7.081100 24.428299 23.196600
							CHANNELS 3 Xrotation Yrotation Zrotation
							End Site
							{
								OFFSET 0.000000 32.263779 0.000000
							}
						}
						JOINT Hat
						{
							OFFSET 16.728800 15.048294 -15.439601
							CHANNELS 3 Xrotation Yrotation Zrotation
							End Site
							{
								OFFSET 0.000000 32.263779 0.000000
							}
						}
					}
				}
				JOINT LeftShoulder
				{
					OFFSET 6.197800 13.665199 -4.064700
					CHANNELS 3 Xrotation Yrotation Zrotation
					JOINT LeftArm
					{
						OFFSET 7.778100 -0.187103 -1.709300
						CHANNELS 3 Xrotation Yrotation Zrotation
						JOINT LeftForeArm
						{
							OFFSET 22.049376 0.000000 0.000000
							CHANNELS 3 Xrotation Yrotation Zrotation
							JOINT LeftHand
							{
								OFFSET 23.009392 0.000000 0.000000
								CHANNELS 3 Xrotation Yrotation Zrotation
								JOINT LeftHandThumb1
								{
									OFFSET 3.507191 -2.063065 3.133727
									CHANNELS 3 Xrotation Yrotation Zrotation
									JOINT LeftHandThumb2
									{
										OFFSET 3.101337 -1.790558 1.790558
										CHANNELS 3 Xrotation Yrotation Zrotation
										JOINT LeftHandThumb3
										{
											OFFSET 3.058640 -1.765907 1.765906
											CHANNELS 3 Xrotation Yrotation Zrotation
											End Site
											{
												OFFSET -0.415260 3.926476 -0.049563
											}
										}
									}
								}
								JOINT LeftHandIndex1
								{
									OFFSET 11.334419 -0.901459 3.706815
									CHANNELS 3 Xrotation Yrotation Zrotation
									JOINT LeftHandIndex2
									{
										OFFSET 3.283112 0.000000 0.000000
										CHANNELS 3 Xrotation Yrotation Zrotation
										JOINT LeftHandIndex3
										{
											OFFSET 3.323853 0.000000 0.000000
											CHANNELS 3 Xrotation Yrotation Zrotation
											End Site
											{
												OFFSET -1.135597 3.097809 0.402452
											}
										}
									}
								}
								JOINT LeftHandMiddle1
								{
									OFFSET 11.335861 0.000000 0.000000
									CHANNELS 3 Xrotation Yrotation Zrotation
									JOINT LeftHandMiddle2
									{
										OFFSET 3.410492 0.000000 0.000000
										CHANNELS 3 Xrotation Yrotation Zrotation
										JOINT LeftHandMiddle3
										{
											OFFSET 3.312172 0.000000 0.000000
											CHANNELS 3 Xrotation Yrotation Zrotation
											End Site
											{
												OFFSET -1.150200 3.080154 0.400270
											}
										}
									}
								}
								JOINT LeftHandRing1
								{
									OFFSET 11.514786 -0.013176 -3.003090
									CHANNELS 3 Xrotation Yrotation Zrotation
									JOINT LeftHandRing2
									{
										OFFSET 3.053307 0.000000 0.000000
										CHANNELS 3 Xrotation Yrotation Zrotation
										JOINT LeftHandRing3
										{
											OFFSET 3.295807 0.000000 0.000000
											CHANNELS 3 Xrotation Yrotation Zrotation
											End Site
											{
												OFFSET -1.281006 3.013344 0.375733
											}
										}
									}
								}
								JOINT LeftHandPinky1
								{
									OFFSET 10.518692 -0.960396 -5.730441
									CHANNELS 3 Xrotation Yrotation Zrotation
									JOINT LeftHandPinky2
									{
										OFFSET 2.861649 0.000000 0.000000
										CHANNELS 3 Xrotation Yrotation Zrotation
										JOINT LeftHandPinky3
										{
											OFFSET 2.863380 0.000000 0.000000
											CHANNELS 3 Xrotation Yrotation Zrotation
											End Site
											{
												OFFSET -0.843597 2.711159 0.369971
											}
										}
									}
								}
							}
							JOINT LSleeve
							{
								OFFSET 6.676277 -0.344902 -1.011730
								CHANNELS 3 Xrotation Yrotation Zrotation
								End Site
								{
									OFFSET 0.000000 14.885353 0.000000
								}
							}
						}
					}
				}
				JOINT RightShoulder
				{
					OFFSET -6.197800 13.665199 -4.064700
					CHANNELS 3 Xrotation Yrotation Zrotation
					JOINT RightArm
					{
						OFFSET -7.778100 -0.187103 -1.709300
						CHANNELS 3 Xrotation Yrotation Zrotation
						JOINT RightForeArm
						{
							OFFSET -22.049376 0.000000 0.000000
							CHANNELS 3 Xrotation Yrotation Zrotation
							JOINT RightHand
							{
								OFFSET -23.009392 0.000000 0.000000
								CHANNELS 3 Xrotation Yrotation Zrotation
								JOINT RightHandThumb1
								{
									OFFSET -3.507191 -2.063065 3.133727
									CHANNELS 3 Xrotation Yrotation Zrotation
									JOINT RightHandThumb2
									{
										OFFSET -3.101337 -1.790558 1.790558
										CHANNELS 3 Xrotation Yrotation Zrotation
										JOINT RightHandThumb3
										{
											OFFSET -3.058640 -1.765907 1.765906
											CHANNELS 3 Xrotation Yrotation Zrotation
											End Site
											{
												OFFSET 0.415260 3.926476 -0.049563
											}
										}
									}
								}
								JOINT RightHandIndex1
								{
									OFFSET -11.334419 -0.901459 3.706815
									CHANNELS 3 Xrotation Yrotation Zrotation
									JOINT RightHandIndex2
									{
										OFFSET -3.283112 0.000000 0.000000
										CHANNELS 3 Xrotation Yrotation Zrotation
										JOINT RightHandIndex3
										{
											OFFSET -3.323853 0.000000 0.000000
											CHANNELS 3 Xrotation Yrotation Zrotation
											End Site
											{
												OFFSET 1.135597 3.097809 0.402452
											}
										}
									}
								}
								JOINT RightHandMiddle1
								{
									OFFSET -11.335861 0.000000 0.000000
									CHANNELS 3 Xrotation Yrotation Zrotation
									JOINT RightHandMiddle2
									{
										OFFSET -3.410492 0.000000 0.000000
										CHANNELS 3 Xrotation Yrotation Zrotation
										JOINT RightHandMiddle3
										{
											OFFSET -3.312172 0.000000 0.000000
											CHANNELS 3 Xrotation Yrotation Zrotation
											End Site
											{
												OFFSET 1.150200 3.080154 0.400270
											}
										}
									}
								}
								JOINT RightHandRing1
								{
									OFFSET -11.514786 -0.013176 -3.003090
									CHANNELS 3 Xrotation Yrotation Zrotation
									JOINT RightHandRing2
									{
										OFFSET -3.053307 0.000000 0.000000
										CHANNELS 3 Xrotation Yrotation Zrotation
										JOINT RightHandRing3
										{
											OFFSET -3.295807 0.000000 0.000000
											CHANNELS 3 Xrotation Yrotation Zrotation
											End Site
											{
												OFFSET 1.281006 3.013344 0.375733
											}
										}
									}
								}
								JOINT RightHandPinky1
								{
									OFFSET -10.518692 -0.960396 -5.730441
									CHANNELS 3 Xrotation Yrotation Zrotation
									JOINT RightHandPinky2
									{
										OFFSET -2.861649 0.000000 0.000000
										CHANNELS 3 Xrotation Yrotation Zrotation
										JOINT RightHandPinky3
										{
											OFFSET -2.863380 0.000000 0.000000
											CHANNELS 3 Xrotation Yrotation Zrotation
											End Site
											{
												OFFSET 0.843597 2.711159 0.369971
											}
										}
									}
								}
							}
							JOINT RSleeve
							{
								OFFSET -6.676277 -0.344902 -1.011730
								CHANNELS 3 Xrotation Yrotation Zrotation
								End Site
								{
									OFFSET 0.000000 14.885353 0.000000
								}
							}
						}
					}
				}
				JOINT Backpack
				{
					OFFSET 0.000000 -2.471497 36.677502
					CHANNELS 3 Xrotation Yrotation Zrotation
					End Site
					{
						OFFSET 0.000000 20.427315 0.000000
					}
				}
				JOINT Hood
				{
					OFFSET 0.000000 18.754097 -10.431000
					CHANNELS 3 Xrotation Yrotation Zrotation
					JOINT Hood1
					{
						OFFSET 0.000000 -5.011002 -7.685901
						CHANNELS 3 Xrotation Yrotation Zrotation
						End Site
						{
							OFFSET 0.000000 9.175140 0.000000
						}
					}
				}
				JOINT LHoodieString
				{
					OFFSET 5.250500 16.397697 3.089900
					CHANNELS 3 Xrotation Yrotation Zrotation
					JOINT LHoodieString1
					{
						OFFSET 0.257700 -6.364304 3.694600
						CHANNELS 3 Xrotation Yrotation Zrotation
						JOINT LHoodieString2
						{
							OFFSET 0.000000 -9.643799 2.679100
							CHANNELS 3 Xrotation Yrotation Zrotation
							End Site
							{
								OFFSET 0.000000 10.009018 0.000000
							}
						}
					}
				}
				JOINT RHoodieString
				{
					OFFSET -5.250500 16.397697 3.089900
					CHANNELS 3 Xrotation Yrotation Zrotation
					JOINT RHoodieString1
					{
						OFFSET -0.257700 -6.364304 3.694600
						CHANNELS 3 Xrotation Yrotation Zrotation
						JOINT RHoodieString2
						{
							OFFSET 0.000000 -9.643799 2.679100
							CHANNELS 3 Xrotation Yrotation Zrotation
							End Site
							{
								OFFSET 0.000000 10.009018 0.000000
							}
						}
					}
				}
			}
			JOINT LBackpack_Strap
			{
				OFFSET 15.223200 -7.719803 -6.610900
				CHANNELS 3 Xrotation Yrotation Zrotation
				End Site
				{
					OFFSET 0.000000 16.040596 0.000000
				}
			}
			JOINT RBackpack_Strap
			{
				OFFSET -15.223000 -7.719803 -6.610900
				CHANNELS 3 Xrotation Yrotation Zrotation
				End Site
				{
					OFFSET 0.000000 16.040596 0.000000
				}
			}
		}
	}
	JOINT BoyFacialAnim_Joint
	{
		OFFSET 1.000000 -82.208099 -1.550900
		CHANNELS 3 Xrotation Yrotation Zrotation
		End Site
		{
			OFFSET 0.000000 30.012791 0.000000
		}
	}
}
MOTION
Frames: 4
Frame Time: 0.016667
19.723381 76.723114 4.045453 154.123669 -63.988593 159.914659 -0.000000 -0.000000 -0.000000 -59.552522 43.340976 54.561064 36.296670 -10.916628 -4.609620 7.781827 7.545300 0.491500 -0.000001 0.000001 -0.000001 -0.000001 0.000001 -0.000000 0.000000 -0.000002 0.000000 -43.656319 -14.622057 -27.011177 43.553285 -5.695412 5.171139 -10.914302 -2.764851 8.193099 -0.000000 -0.000000 0.000000 -0.000000 -0.000000 0.000000 -0.000000 -0.000003 0.000001 10.367176 -2.905843 2.068386 5.441882 -1.990671 -3.512882 -3.218477 -5.241817 -2.484907 6.043357 13.386864 -0.965028 -12.384981 14.668038 -5.260455 0.000001 0.000000 -0.000000 0.000001 0.000000 -0.000000 0.000001 0.000000 -0.000000 -1.837973 -14.467495 -4.296790 -24.431884 -9.271233 -47.099233 -14.226257 -27.309265 -17.570315 3.474900 -7.760244 6.842565 20.212992 -4.649831 10.411160 3.371804 17.053172 -9.307506 0.000002 -0.000002 0.000000 -0.754222 0.208573 -13.245155 0.030483 -0.759502 -17.420377 -0.000001 -0.000000 -0.000002 2.446933 2.844473 -23.035259 -0.021044 -2.027867 -31.425154 -0.000001 -0.000002 -0.000000 0.752487 4.505542 -30.750260 -0.981915 -1.227440 -35.970932 0.000001 0.000000 -0.000000 -1.632793 3.694654 -37.232734 -0.950052 -0.779054 -32.064572 0.000001 0.000004 0.000000 0.000002 -0.000002 0.000001 -5.499243 24.268034 2.019079 -13.674994 -20.288522 57.835153 13.715965 34.549450 -4.170622 13.832394 22.666562 12.809465 55.149563 18.649541 -29.698301 -0.442551 -14.180554 7.313153 0.000000 -0.000001 0.000000 5.673401 7.585004 36.844178 1.050426 3.824509 68.900257 0.000001 -0.000001 0.000003 -0.125694 1.886099 45.000773 -1.169017 3.204653 68.417677 -0.000003 -0.000001 0.000003 -5.312026 1.216634 58.508801 -0.745217 1.667562 48.011285 0.000002 -0.000002 0.000002 -7.756802 -9.376456 47.263997 -0.526038 1.541588 45.600501 -0.000000 0.000000 0.000000 -0.000001 -0.000000 0.000002 -0.000001 -0.000004 0.000001 -0.000001 -0.000004 0.000001 -0.000001 -0.000004 0.000001 -0.000001 -0.000004 0.000001 -0.000001 -0.000004 0.000001 0.000000 -0.000000 -0.000000 -0.000001 -0.000004 0.000001 -0.000001 -0.000004 0.000001 0.000000 -0.000000 -0.000000 -0.000000 0.000001 -0.000000 -0.000000 0.000001 -0.000000 -0.000000 -0.000000 -0.000000 
19.791656 76.675789 3.516527 154.814734 -62.602946 160.702207 -0.000000 0.000000 -0.000000 -61.039488 42.808043 55.803308 36.518122 -12.718680 -4.353773 9.293522 6.800603 2.188519 -0.000001 0.000001 -0.000002 -0.000001 0.000001 -0.000002 0.000000 0.000001 0.000001 -44.163440 -14.425146 -26.307281 44.068872 -5.352575 5.264200 -11.509092 -2.180347 7.539065 0.000000 0.000000 0.000000 0.000000 0.000000 0.000000 -0.000000 -0.000001 0.000001 10.477485 -2.885179 2.052219 5.299430 -1.863426 -3.688208 -3.740320 -4.710137 -2.529078 6.087835 13.825677 -1.303472 -12.333069 14.943274 -5.101978 0.000002 -0.000000 -0.000000 0.000002 -0.000000 -0.000000 0.000002 -0.000000 -0.000000 -1.833827 -14.445314 -4.259438 -24.484058 -9.447710 -47.266767 -14.703176 -28.284795 -17.623235 3.654409 -8.621945 6.264436 20.213250 -4.649926 10.411321 3.371651 17.053300 -9.307567 -0.000000 0.000002 0.000001 -0.754211 0.208568 -13.245172 0.030192 -0.759579 -17.420343 -0.000001 0.000000 -0.000005 2.446889 2.844498 -23.035257 -0.021110 -2.027798 -31.425188 -0.000002 0.000006 0.000005 0.752466 4.505413 -30.750260 -0.981741 -1.227654 -35.970952 -0.000003 0.000000 -0.000002 -1.632784 3.694676 -37.232720 -0.949878 -0.779161 -32.064586 0.000002 -0.000001 -0.000000 -0.000002 0.000002 0.000001 -5.518097 24.192595 2.050981 -13.471659 -20.142004 57.616621 14.645633 34.292522 -4.668573 13.381612 22.766223 12.759867 55.149563 18.649540 -29.698294 -0.442552 -14.180557 7.313157 0.000002 -0.000001 0.000000 5.673398 7.585005 36.844185 1.050426 3.824505 68.900257 0.000003 0.000001 0.000002 -0.125690 1.886094 45.000776 -1.169020 3.204650 68.417677 -0.000007 0.000000 0.000002 -5.312025 1.216638 58.508801 -0.745214 1.667569 48.011285 -0.000003 -0.000001 0.000002 -7.756800 -9.376457 47.263997 -0.526035 1.541591 45.600508 -0.000003 -0.000002 0.000002 0.000001 0.000001 0.000002 0.000001 -0.000003 0.000001 0.000001 -0.000003 0.000001 0.000001 -0.000003 0.000001 0.000001 -0.000003 0.000001 0.000001 -0.000003 0.000001 -0.000001 -0.000002 0.000000 0.000001 -0.000003 0.000001 0.000001 -0.000003 0.000001 -0.000001 -0.000002 0.000000 0.000001 0.000002 -0.000001 0.000001 0.000002 -0.000001 -0.000000 0.000000 -0.000000 
19.835482 76.622650 3.002021 155.441554 -61.285327 161.449976 -0.000001 0.000001 -0.000000 -62.294494 42.258066 56.770091 36.603168 -14.348050 -4.082857 10.662996 6.099564 3.794684 -0.000001 -0.000001 0.000000 -0.000001 -0.000001 -0.000000 -0.000000 -0.000000 0.000001 -44.608925 -14.213621 -25.641906 44.588841 -5.037886 5.316720 -12.103572 -1.628734 6.962647 -0.000000 -0.000002 -0.000000 -0.000000 -0.000002 -0.000000 0.000000 -0.000001 -0.000001 10.538138 -2.851979 2.020482 5.170769 -1.727745 -3.885300 -4.258839 -4.169627 -2.589061 6.369391 14.108982 -1.231388 -12.373166 15.396882 -5.297319 -0.000000 0.000000 -0.000000 -0.000000 0.000000 -0.000000 -0.000000 0.000000 -0.000000 -1.831041 -14.578223 -4.183432 -24.473703 -9.331614 -47.461164 -15.137526 -29.354855 -17.695186 3.798894 -9.351021 5.643290 20.213497 -4.650038 10.411466 3.371499 17.053437 -9.307617 -0.000002 -0.000001 0.000001 -0.754174 0.208575 -13.245164 0.029921 -0.759679 -17.420360 -0.000000 0.000002 -0.000005 2.446817 2.844520 -23.035247 -0.021154 -2.027662 -31.425188 -0.000000 -0.000001 -0.000000 0.752475 4.505306 -30.750249 -0.981624 -1.227885 -35.970918 -0.000000 -0.000003 -0.000003 -1.632816 3.694663 -37.232751 -0.949719 -0.779213 -32.064586 -0.000001 -0.000000 -0.000000 -0.000000 0.000002 0.000000 -5.543633 24.107510 2.123105 -13.173073 -20.156865 57.392317 15.493922 34.171020 -5.133746 12.981445 22.876457 12.755359 55.149570 18.649540 -29.698301 -0.442552 -14.180554 7.313154 0.000001 0.000001 -0.000003 5.673400 7.585003 36.844175 1.050430 3.824513 68.900257 -0.000002 0.000001 0.000002 -0.125688 1.886096 45.000780 -1.169023 3.204654 68.417677 -0.000004 0.000000 0.000002 -5.312020 1.216640 58.508801 -0.745218 1.667562 48.011288 0.000002 -0.000001 0.000002 -7.756797 -9.376457 47.263997 -0.526041 1.541587 45.600501 0.000003 -0.000000 -0.000002 -0.000000 0.000001 0.000000 -0.000002 -0.000001 0.000000 -0.000002 -0.000001 0.000000 -0.000002 -0.000001 0.000000 -0.000002 -0.000001 0.000000 -0.000002 -0.000001 -0.000000 -0.000003 0.000001 -0.000000 -0.000002 -0.000001 0.000000 -0.000002 -0.000001 -0.000000 -0.000003 0.000001 -0.000000 0.000001 -0.000000 -0.000000 0.000001 -0.000000 -0.000000 -0.000001 0.000001 -0.000000 
19.864021 76.560722 2.439356 155.992177 -60.007071 162.188415 0.000000 -0.000000 -0.000000 -63.227307 41.760750 57.393547 36.406551 -15.744964 -3.827209 11.885355 5.380247 5.189824 0.000000 0.000001 0.000001 0.000000 0.000001 0.000001 -0.000001 -0.000000 0.000000 -45.040443 -13.972630 -24.999519 45.190536 -4.750304 5.319290 -12.774639 -1.097948 6.430484 -0.000000 0.000000 0.000000 -0.000000 0.000000 0.000000 -0.000001 0.000001 0.000001 10.561644 -2.814836 1.979028 5.077499 -1.603212 -4.097632 -4.749400 -3.643003 -2.662464 6.469089 14.668542 -1.949853 -12.456453 15.384866 -4.709117 -0.000000 -0.000000 -0.000000 -0.000000 -0.000000 -0.000000 -0.000000 -0.000000 -0.000000 -1.822005 -14.611907 -4.119293 -24.396502 -9.365111 -47.588011 -15.736326 -30.089941 -17.677868 3.879483 -10.256083 4.806044 20.213737 -4.650126 10.411643 3.371309 17.053567 -9.307689 0.000000 -0.000002 -0.000004 -0.754145 0.208551 -13.245157 0.029629 -0.759752 -17.420365 0.000004 -0.000003 0.000001 2.446761 2.844554 -23.035226 -0.021222 -2.027531 -31.425192 -0.000002 0.000000 0.000000 0.752446 4.505226 -30.750215 -0.981492 -1.228080 -35.970904 -0.000003 -0.000001 -0.000002 -1.632806 3.694640 -37.232724 -0.949580 -0.779283 -32.064586 -0.000001 0.000003 0.000002 -0.000001 -0.000000 0.000000 -5.569918 24.018606 2.202745 -12.836180 -20.262256 57.156430 16.241534 34.139618 -5.554861 12.609205 23.011151 12.781473 55.149567 18.649541 -29.698301 -0.442550 -14.180552 7.313154 0.000001 0.000001 -0.000004 5.673401 7.585001 36.844182 1.050428 3.824517 68.900257 -0.000001 0.000002 0.000000 -0.125693 1.886097 45.000773 -1.169021 3.204651 68.417670 0.000000 -0.000002 -0.000000 -5.312022 1.216640 58.508807 -0.745213 1.667560 48.011295 -0.000001 -0.000001 0.000002 -7.756799 -9.376455 47.263994 -0.526038 1.541592 45.600508 -0.000003 -0.000002 -0.000000 -0.000000 0.000001 -0.000006 0.000001 0.000001 -0.000001 0.000001 0.000001 -0.000001 0.000001 0.000001 -0.000001 0.000001 0.000001 -0.000001 0.000001 0.000001 -0.000001 -0.000001 -0.000001 0.000000 0.000001 0.000001 -0.000001 0.000001 0.000001 -0.000001 -0.000001 -0.000001 0.000000 0.000001 -0.000000 0.000001 0.000001 -0.000000 0.000001 0.000000 -0.000000 -0.000000 
